<?xml version="1.0" standalone="no"?>
<!DOCTYPE svg PUBLIC "-//W3C//DTD SVG 20010904//EN"
 "http://www.w3.org/TR/2001/REC-SVG-20010904/DTD/svg10.dtd">
<svg version="1.0" xmlns="http://www.w3.org/2000/svg"
 width="367.000000pt" height="253.000000pt" viewBox="0 0 367.000000 253.000000"
 preserveAspectRatio="xMidYMid meet">

<g transform="translate(0.000000,253.000000) scale(0.100000,-0.100000)"
fill="#000000" stroke="none">
<path d="M1742 2250 c-302 -41 -541 -242 -639 -535 -26 -79 -26 -85 -32 -435
l-6 -355 -23 -3 c-18 -3 -22 -10 -22 -42 0 -40 -11 -50 -56 -50 -22 0 -24 -4
-24 -50 l0 -50 895 0 895 0 0 50 c0 46 -2 50 -24 50 -45 0 -56 10 -56 50 0 32
-4 39 -22 42 l-23 3 -6 345 c-5 317 -8 351 -28 420 -40 133 -124 274 -212 355
-168 154 -406 233 -617 205z m274 -30 c43 -11 117 -39 164 -62 70 -34 102 -58
181 -137 83 -83 103 -110 142 -191 74 -152 78 -183 77 -563 0 -181 -3 -333 -6
-338 -11 -18 -56 -10 -61 11 -4 15 -9 18 -18 10 -26 -22 -329 278 -466 461
-86 114 -113 159 -103 168 5 5 51 11 102 15 100 7 116 0 93 -42 -19 -35 8 -69
44 -56 22 9 19 51 -5 64 -29 15 -25 39 8 45 15 4 36 8 46 10 33 7 47 -13 40
-55 -5 -33 -3 -39 15 -45 51 -16 69 45 21 70 -51 26 -36 40 50 47 35 3 35 3
35 -40 1 -60 40 -79 65 -31 11 19 6 25 -34 53 -27 19 -11 36 34 36 38 0 39 -1
44 -42 11 -86 13 -93 15 -53 3 101 -73 281 -160 378 -84 94 -177 156 -299 199
-82 30 -267 36 -362 13 -227 -55 -424 -240 -491 -463 -18 -60 -21 -106 -26
-412 l-6 -345 -35 0 -35 0 0 345 c0 303 2 353 18 409 45 157 149 316 268 406
76 57 202 118 284 138 92 23 266 21 361 -3z m-30 -85 c212 -50 399 -216 470
-418 8 -22 12 -42 10 -44 -25 -26 -550 -89 -565 -68 -4 5 -20 32 -35 58 l-27
48 31 80 c17 45 29 83 27 86 -3 2 -17 -28 -32 -66 -15 -39 -31 -69 -35 -66 -5
3 -19 36 -31 73 -12 37 -24 62 -26 55 -2 -6 9 -45 25 -85 l30 -73 -32 -60 -31
-60 -55 -3 c-118 -7 -455 42 -497 73 -16 12 -15 16 5 70 76 197 270 362 477
405 66 13 226 11 291 -5z m-163 -512 c-4 -24 -11 -33 -24 -33 -23 0 -23 1 -2
45 20 41 33 34 26 -12z m47 7 c14 -34 9 -46 -15 -37 -10 4 -15 19 -15 42 0 41
12 39 30 -5z m-621 9 c38 -13 40 -32 5 -47 -29 -14 -30 -48 -2 -65 27 -18 51
10 43 50 -7 41 6 48 66 36 50 -10 61 -29 25 -43 -15 -5 -29 -17 -32 -25 -9
-21 15 -47 40 -43 16 2 21 11 22 38 3 66 0 63 56 56 28 -4 55 -9 59 -12 13 -8
-1 -32 -22 -37 -12 -3 -19 -14 -19 -30 0 -32 35 -46 58 -23 13 13 14 20 3 42
-19 42 -1 50 102 46 64 -3 87 -7 87 -17 0 -29 -169 -246 -307 -392 -70 -74
-244 -233 -256 -233 -10 0 -3 656 8 688 8 25 19 27 64 11z m1179 -67 c3 -16
-2 -22 -16 -22 -24 0 -35 23 -19 39 16 16 31 8 35 -17z m-1138 -17 c0 -8 -6
-15 -12 -18 -21 -7 -38 4 -38 23 0 10 6 20 13 23 15 5 37 -11 37 -28z m524
-12 c-36 -212 -117 -376 -245 -497 -41 -39 -100 -83 -130 -98 -48 -25 -66 -28
-147 -28 -50 0 -92 3 -92 6 0 3 76 80 169 172 174 173 267 281 348 407 40 62
52 74 76 74 27 1 28 0 21 -36z m140 -45 c82 -126 198 -258 364 -419 83 -81
148 -149 145 -153 -4 -3 -45 -6 -93 -6 -101 0 -149 19 -242 97 -138 115 -243
313 -273 516 -7 46 -7 47 19 47 21 0 35 -15 80 -82z m-50 -185 c53 -135 153
-264 261 -338 30 -21 55 -42 55 -47 0 -4 -56 -8 -125 -8 -104 0 -125 2 -125
15 0 8 -5 15 -11 15 -6 0 -8 -7 -5 -16 10 -25 -17 -11 -31 17 -10 19 -13 20
-13 6 0 -10 -4 -15 -10 -12 -5 3 -10 22 -10 41 0 19 -4 33 -9 30 -15 -10 -33
22 -26 45 5 14 4 19 -4 15 -6 -4 -14 -25 -17 -46 -4 -22 -16 -47 -27 -57 -19
-17 -20 -17 -14 0 4 9 4 38 0 63 -6 45 -7 45 -19 23 -7 -13 -13 -32 -14 -41 0
-10 -4 -18 -8 -18 -5 0 -15 -18 -22 -40 -9 -27 -19 -40 -32 -40 -10 0 -18 5
-18 12 0 9 -3 9 -12 0 -13 -13 -209 -18 -221 -6 -3 4 24 28 61 54 147 103 254
273 297 470 9 41 19 86 22 100 4 18 12 -1 29 -75 12 -55 34 -128 48 -162z
m400 248 c9 -14 -4 -41 -19 -41 -18 0 -28 17 -21 35 6 17 32 20 40 6z m-894
-21 c0 -24 -29 -38 -40 -20 -12 19 -1 40 21 40 12 0 19 -7 19 -20z m760 -9 c0
-27 -19 -36 -37 -18 -18 18 -9 37 18 37 12 0 19 -7 19 -19z m-622 -14 c4 -20
-25 -34 -40 -19 -15 15 -1 44 19 40 10 -2 19 -11 21 -21z m320 -580 c8 -9 4
-12 -18 -12 -23 -1 -27 2 -18 12 13 16 23 16 36 0z m-41 -45 c12 -16 13 -16 7
1 -5 14 0 17 33 17 21 0 45 -6 52 -12 11 -10 14 -10 18 0 10 26 21 11 13 -17
-4 -16 -5 -33 -2 -37 4 -5 -2 -2 -12 6 -13 10 -17 10 -12 3 4 -7 3 -13 -1 -13
-5 0 -15 6 -22 13 -10 10 -12 9 -9 -2 5 -22 -20 -24 -32 -2 -8 15 -8 21 0 21
6 0 8 5 4 11 -8 14 -24 -9 -18 -26 3 -7 -1 -15 -9 -18 -10 -4 -13 0 -10 13 3
10 0 21 -6 24 -7 5 -8 1 -4 -10 4 -12 3 -15 -5 -10 -7 4 -12 2 -12 -3 0 -6 -9
-11 -20 -11 -19 0 -25 10 -21 35 1 6 -7 -1 -18 -15 -18 -22 -23 -23 -41 -12
-17 10 -20 10 -20 -3 0 -13 -39 -15 -322 -13 l-323 3 -3 38 -3 38 392 -2 c353
-1 394 -3 406 -17z m811 -19 l-3 -38 -317 -1 c-175 0 -318 3 -318 8 0 4 -9 8
-20 8 -11 0 -20 7 -20 15 0 8 4 15 10 15 5 0 7 7 4 15 -5 13 35 15 331 15
l336 0 -3 -37z m55 -53 c26 0 28 -2 25 -37 l-3 -38 -880 0 -880 0 -3 37 c-3
35 -2 37 30 40 27 2 471 2 1711 -2z"/>
<path d="M2504 1240 c0 -151 2 -213 3 -137 2 75 2 199 0 275 -1 75 -3 13 -3
-138z"/>
<path d="M1706 2021 c-4 -5 -2 -12 3 -15 5 -4 12 -2 15 3 4 5 2 12 -3 15 -5 4
-12 2 -15 -3z"/>
<path d="M2220 1923 c0 -5 7 -17 15 -27 53 -70 -45 -169 -126 -126 -10 6 -19
8 -19 5 0 -18 24 -47 50 -60 82 -42 170 14 170 111 0 28 -8 44 -34 70 -32 32
-56 44 -56 27z m64 -48 c26 -39 20 -90 -13 -127 -25 -28 -36 -33 -75 -33 -30
0 -51 6 -63 18 -16 16 -16 17 16 17 69 0 120 57 107 120 -7 36 6 39 28 5z"/>
<path d="M1545 1879 c-10 -15 3 -25 16 -12 7 7 7 13 1 17 -6 3 -14 1 -17 -5z"/>
<path d="M1325 1811 c-7 -12 12 -24 25 -16 11 7 4 25 -10 25 -5 0 -11 -4 -15
-9z"/>
<path d="M1804 1198 l-19 -23 23 19 c21 18 27 26 19 26 -2 0 -12 -10 -23 -22z"/>
<path d="M1840 1176 c0 -2 8 -10 18 -17 15 -13 16 -12 3 4 -13 16 -21 21 -21
13z"/>
<path d="M1745 1130 c3 -5 8 -10 11 -10 2 0 4 5 4 10 0 6 -5 10 -11 10 -5 0
-7 -4 -4 -10z"/>
<path d="M1926 1083 c-6 -14 -5 -15 5 -6 7 7 10 15 7 18 -3 3 -9 -2 -12 -12z"/>
<path d="M1694 884 c-18 -14 -18 -15 4 -4 12 6 22 13 22 15 0 8 -5 6 -26 -11z"/>
<path d="M1735 626 c-43 -19 -66 -49 -75 -98 -11 -61 -2 -108 21 -108 17 0 19
8 19 65 0 78 13 110 52 126 34 14 78 -1 78 -26 0 -19 26 -20 33 -2 7 20 -4 34
-36 46 -36 14 -55 13 -92 -3z"/>
<path d="M2213 626 c-69 -31 -52 -109 33 -152 75 -38 88 -92 28 -114 -31 -12
-68 7 -79 40 -8 24 -25 17 -25 -10 0 -30 28 -50 70 -50 117 0 147 105 44 155
-59 28 -74 44 -74 74 0 54 57 71 86 26 19 -30 34 -32 34 -6 0 40 -64 60 -117
37z"/>
<path d="M1058 620 c21 -9 22 -14 22 -131 0 -112 -1 -121 -20 -126 -36 -9 -21
-23 25 -23 44 0 60 12 30 24 -12 4 -15 27 -15 118 0 63 4 108 9 103 4 -6 25
-57 45 -115 20 -58 41 -112 47 -120 13 -21 20 -7 65 120 20 58 41 109 45 114
5 6 9 -39 9 -102 0 -91 -3 -114 -15 -118 -18 -7 -20 -24 -2 -24 26 1 47 74 47
168 0 83 2 92 22 106 22 15 21 16 -23 16 l-46 0 -33 -92 c-18 -51 -37 -104
-42 -118 -9 -22 -14 -12 -51 90 l-42 115 -50 2 c-39 2 -45 0 -27 -7z"/>
<path d="M1428 620 c20 -9 22 -16 22 -85 0 -68 2 -75 20 -75 18 0 20 7 20 73
0 67 2 75 23 85 18 9 11 11 -43 11 -49 0 -59 -3 -42 -9z"/>
<path d="M1997 623 c-2 -4 -26 -65 -52 -135 -29 -79 -53 -128 -61 -128 -8 0
-14 -4 -14 -10 0 -5 23 -10 51 -10 31 0 48 4 44 10 -3 6 -13 10 -21 10 -16 0
-18 18 -4 54 9 24 15 26 65 26 50 0 56 -2 65 -26 14 -36 12 -54 -5 -54 -8 0
-15 -4 -15 -10 0 -6 26 -10 58 -10 56 0 56 1 35 18 -13 10 -39 66 -66 142 -41
114 -64 150 -80 123z m29 -85 c9 -29 19 -59 22 -65 3 -9 -9 -13 -43 -13 -33 0
-46 4 -43 13 3 6 13 36 23 65 11 28 20 52 21 52 1 0 10 -24 20 -52z"/>
<path d="M2482 613 c-5 -10 -28 -71 -52 -135 -26 -71 -48 -118 -57 -118 -7 0
-13 -4 -13 -10 0 -5 20 -10 45 -10 25 0 45 5 45 10 0 6 -7 10 -15 10 -17 0
-19 18 -5 54 9 23 15 26 63 26 48 0 55 -3 65 -25 16 -35 15 -55 -3 -55 -8 0
-15 -4 -15 -10 0 -5 23 -10 50 -10 47 0 66 12 37 23 -7 3 -34 64 -61 136 -47
129 -64 152 -84 114z m34 -75 c9 -29 19 -59 22 -65 3 -9 -9 -13 -43 -13 -34 0
-46 4 -43 13 3 6 13 36 22 65 10 28 19 52 21 52 2 0 11 -24 21 -52z"/>
<path d="M1440 434 c14 -3 53 -11 87 -20 34 -9 68 -14 75 -12 24 8 -86 38
-136 37 -28 -1 -40 -3 -26 -5z"/>
<path d="M1362 400 c-43 -41 -16 -111 43 -109 14 0 16 2 5 6 -49 18 -65 70
-33 105 22 24 12 23 -15 -2z"/>
<path d="M1450 390 c0 -19 -5 -30 -14 -30 -8 0 -18 -4 -21 -10 -4 -6 5 -10 19
-10 21 0 26 5 26 25 0 14 7 28 16 32 13 5 13 7 2 14 -22 15 -28 10 -28 -21z"/>
<path d="M1655 403 c-51 -8 -47 -18 5 -15 28 2 50 8 50 13 0 9 -2 9 -55 2z"/>
<path d="M1706 380 c-18 -6 -18 -7 5 -23 43 -30 149 -18 149 18 0 12 -4 12
-27 -1 -35 -18 -63 -18 -88 0 -11 7 -28 10 -39 6z"/>
<path d="M1470 359 c0 -11 -5 -30 -11 -42 -10 -21 -9 -21 10 2 22 24 28 61 11
61 -5 0 -10 -9 -10 -21z"/>
<path d="M1559 323 c-47 -51 -139 -168 -139 -177 0 -3 9 -2 19 2 11 4 43 43
71 87 29 44 64 92 78 108 14 15 23 27 20 27 -3 0 -25 -21 -49 -47z"/>
<path d="M1370 350 c0 -5 5 -10 10 -10 6 0 10 5 10 10 0 6 -4 10 -10 10 -5 0
-10 -4 -10 -10z"/>
<path d="M1500 350 c0 -5 7 -10 15 -10 8 0 15 5 15 10 0 6 -7 10 -15 10 -8 0
-15 -4 -15 -10z"/>
<path d="M2130 272 c0 -4 9 -8 20 -9 11 -1 20 2 20 8 0 5 -9 9 -20 9 -11 0
-20 -4 -20 -8z"/>
<path d="M1609 253 c-19 -22 -59 -88 -59 -97 0 -12 48 -6 59 8 9 11 6 12 -14
8 -33 -6 -32 5 6 44 17 18 29 38 27 44 -2 7 -9 5 -19 -7z"/>
<path d="M1661 225 c-17 -25 -31 -53 -31 -61 0 -16 35 -19 45 -4 3 6 -1 10 -9
10 -25 0 -19 21 15 56 17 18 26 34 21 38 -6 3 -24 -14 -41 -39z"/>
<path d="M2027 250 c5 -20 -49 -80 -71 -80 -24 0 -19 24 12 61 22 28 23 31 5
18 -35 -24 -66 -68 -59 -84 7 -18 37 -19 55 -2 11 10 14 10 18 0 6 -16 35 -17
51 -1 8 8 15 8 28 -3 13 -10 16 -10 10 -1 -4 7 -2 20 5 28 20 24 1 29 -21 6
-23 -24 -50 -29 -50 -9 0 8 11 24 25 37 30 28 32 46 6 46 -12 0 -17 -6 -14
-16z"/>
<path d="M2287 233 c-31 -49 -53 -67 -73 -59 -14 5 -13 10 6 44 l22 37 -31
-29 c-51 -49 -37 -96 20 -66 13 7 19 7 19 0 0 -16 36 -12 57 8 10 9 14 14 9
10 -14 -11 -46 -10 -46 2 0 5 14 25 30 44 18 19 26 37 21 41 -6 3 -21 -11 -34
-32z"/>
<path d="M1847 249 c-9 -5 -24 -23 -32 -39 -27 -51 4 -81 56 -55 16 9 29 18
29 21 0 2 -9 0 -21 -6 -47 -26 -65 16 -28 64 23 29 22 30 -4 15z"/>
<path d="M1887 240 c-13 -13 -15 -20 -7 -25 13 -8 30 11 30 33 0 15 -1 15 -23
-8z"/>
<path d="M2132 219 c-1 -9 -11 -28 -23 -43 -19 -25 -20 -26 -2 -26 11 0 28 7
39 16 10 8 14 13 7 10 -7 -4 -13 5 -16 26 -2 18 -5 26 -5 17z"/>
</g>
</svg>
