<?xml version="1.0" encoding="utf-8" ?>
<svg xmlns="http://www.w3.org/2000/svg" xmlns:xlink="http://www.w3.org/1999/xlink" width="1393" height="1393">
	<path fill="#18D452" transform="scale(1.36109 1.36109)" d="M967.4 745.906C976.382 745.612 985.13 745.251 994.02 746.915C985.432 748.115 977.032 748.079 968.382 748.056L967.4 745.906Z"/>
	<path fill="#1B1B1B" transform="scale(1.36109 1.36109)" d="M113.701 638.453C117.786 643.326 120.842 648.585 123.45 654.372C121.481 654.105 119.601 653.931 117.612 653.952C117.611 647.714 113.646 648.757 111.23 644.603C112.203 642.628 112.921 640.511 113.701 638.453Z"/>
	<path fill="#18D452" transform="scale(1.36109 1.36109)" d="M278.293 377.411C280.591 381.493 281.696 379.777 284.289 382.145C284.111 382.39 283.929 382.632 283.756 382.881C282.786 384.274 282.761 385.178 283.043 386.817C283.201 387.734 283.349 388.313 283.099 389.234C281.854 389.511 280.824 388.801 279.732 388.274C278.677 388.296 279.127 388.177 278.15 388.653C277.335 389.05 276.556 389.387 275.709 389.708C275.307 386.376 275.313 385.666 273.425 382.813L273.607 382.15C275.488 380.895 277.092 379.949 278.109 377.83C278.175 377.692 278.232 377.55 278.293 377.411Z"/>
	<path fill="#18D452" transform="scale(1.36109 1.36109)" d="M320.764 414.884C321.666 415.945 322.298 417.28 323.173 418.379C324.282 419.771 325.121 419.604 326.756 419.713L327.397 420.483L327.126 420.846C326.986 421.037 326.851 421.231 326.708 421.42C325.484 423.046 325.034 424.183 324.927 426.23C324.914 426.485 324.908 426.74 324.898 426.995C323.399 427.247 322.198 426.451 320.804 425.893C319.556 426.569 318.397 427.276 316.989 427.558L316.502 427.003C316.637 420.882 314.725 422.44 314.151 419.304C314.92 419.392 315.621 419.439 316.391 419.276C318.563 418.815 319.317 417.255 320.395 415.496L320.764 414.884Z"/>
	<path fill="#18D452" transform="scale(1.36109 1.36109)" d="M584.031 409.273C585.942 410.004 586.027 412.918 587.985 413.467C589.134 413.788 590.555 413.4 591.824 413.762C591.32 414.365 590.835 414.985 590.331 415.587C589.382 416.721 589.08 417.375 588.652 418.815C588.337 419.875 588.113 420.678 587.481 421.605C586.106 421.577 586.038 421.152 585.037 420.283C583.687 420.986 582.554 421.638 581.008 421.793C579.652 420.81 578.647 415.837 577.973 414.089L578.859 414.291C581.133 413.586 582.465 411.756 583.685 409.832C583.802 409.647 583.915 409.46 584.031 409.273Z"/>
	<path fill="#18D452" transform="scale(1.36109 1.36109)" d="M430.174 397.221C430.961 397.906 430.715 397.588 431.248 398.445C431.712 399.19 432.133 400.052 432.676 400.74C433.989 402.401 436.341 402.374 438.323 402.727C436.714 404.622 435.459 405.809 435.508 408.448C435.527 409.479 435.594 409.879 435.263 410.88L430.527 409.527L426.167 412.932C426.469 410.889 426.827 408.854 427.168 406.817L423.196 403.2C424.374 402.94 425.715 402.724 426.818 402.23C429.056 401.227 429.406 399.362 430.174 397.221Z"/>
	<path fill="#18D452" transform="scale(1.36109 1.36109)" d="M728.325 383.475C731.013 383.541 733.283 383.828 735.264 385.825C736.362 386.932 736.935 388.383 736.841 389.955C736.679 392.653 735.025 394.014 733.108 395.598C732.369 395.671 731.624 395.735 730.881 395.723C729.154 395.696 727.429 394.931 726.25 393.663C725.12 392.449 724.669 390.836 724.77 389.2C724.935 386.528 726.416 385.16 728.325 383.475Z"/>
	<path fill="#18D452" transform="scale(1.36109 1.36109)" d="M798.46 353.993C801.024 354.137 803.465 354.636 805.173 356.74C806.217 358.024 806.518 359.637 806.233 361.247C805.764 363.899 803.882 365.202 801.798 366.643C801.136 366.654 800.561 366.632 799.906 366.544C798.06 366.299 796.13 365.496 795.112 363.832C794.24 362.407 793.987 360.874 794.307 359.245C794.801 356.729 796.444 355.371 798.46 353.993Z"/>
	<path fill="#1B1B1B" transform="scale(1.36109 1.36109)" d="M509.361 656.456C509.358 656.644 509.387 656.835 509.352 657.02C508.056 663.765 485.201 695.743 480.108 701.61C475.116 707.361 469.347 712.72 463.5 717.598C463.43 716.039 471.741 707.273 473.36 705.367C481.214 696.123 489.014 686.558 495.949 676.599C500.545 670 504.429 662.792 509.361 656.456Z"/>
	<path fill="#626261" transform="scale(1.36109 1.36109)" d="M223.906 631.022C227.096 636.187 230.758 641.43 232.888 647.123C230.392 648.514 228.43 650.163 226.301 652.045C223.4 646.876 220.311 641.827 217.229 636.766C219.096 634.207 221.309 632.75 223.906 631.022Z"/>
	<path fill="#1A7C3C" transform="scale(1.36109 1.36109)" d="M521.23 739.649C541.318 739.516 561.524 739.016 581.599 739.561C577.872 740.257 572.77 742.873 570.669 746.19C570.573 746.342 570.509 746.512 570.429 746.674C570.888 747.702 570.541 747.467 571.495 747.805C574.171 748.752 578.257 748.016 581.151 748.407C563.717 749.16 545.973 748.405 528.501 748.397L435.717 748.378C443.343 746.667 457.9 747.72 466.072 747.72L537.418 747.886C538.81 746.634 540.985 744.984 541.735 743.238C542.205 742.142 542.046 741.959 541.619 740.93C537.315 738.373 527.16 740.602 521.713 739.735C521.552 739.709 521.391 739.678 521.23 739.649Z"/>
	<path fill="#18D452" transform="scale(1.36109 1.36109)" d="M242.591 419.321C245.151 422.959 246.48 427.346 247.878 431.522C252.415 431.614 256.95 431.831 261.483 432.012C257.537 434.518 253.641 437.391 250.165 440.51C252.059 444.964 252.986 449.987 253.996 454.7C249.86 452.406 246.077 449.769 242.461 446.725C238.288 449.508 234.024 452.167 229.799 454.871C231.03 450.231 232.074 445.405 233.909 440.964C230.426 437.991 226.996 434.88 223.278 432.204C228.031 431.771 232.712 431.561 237.481 431.486C238.864 427.341 240.866 423.34 242.591 419.321ZM240.356 433.296C239.198 434.646 237.755 435.97 237.507 437.791C237.97 439.464 239.493 440.379 240.901 441.245C242.149 440.115 242.911 439.498 243.242 437.756C243.063 435.984 242.113 434.701 240.76 433.583C240.632 433.478 240.491 433.391 240.356 433.296Z"/>
	<path fill="#18D452" transform="scale(1.36109 1.36109)" d="M358.278 356.301C361.036 358.965 362.843 365.946 363.623 369.697C368.604 369.705 373.614 370.031 378.594 370.225C374.834 373.06 371.269 376.6 367.084 378.77C368.515 383.761 369.768 388.773 370.98 393.82C367.01 391.252 363.114 388.551 359.188 385.916C359.09 385.863 359.003 385.779 358.894 385.757C356.231 385.237 348.554 392.014 346.172 393.714C347.1 388.729 348.05 383.833 349.477 378.958C345.434 376.309 341.706 373.286 338.047 370.137L352.632 369.493C354.413 365.064 356.398 360.69 358.278 356.301Z"/>
	<path fill="#18D452" transform="scale(1.36109 1.36109)" d="M666.253 351.869C668.799 355.57 670.159 360.804 671.626 365.053C677.276 365.008 683.002 365.574 688.631 365.041C684.34 368.614 679.529 371.787 674.861 374.841C677 379.574 678.409 384.646 679.776 389.644C675.051 386.974 670.632 383.708 666.219 380.557C661.722 384.081 657.133 387.253 652.379 390.418C654.132 385.244 655.658 379.794 657.952 374.837C653.178 371.688 648.58 368.506 644.04 365.029C649.699 364.884 655.349 364.805 661.009 364.809C662.411 360.426 664.246 356.006 666.253 351.869Z"/>
	<path fill="#18D452" transform="scale(1.36109 1.36109)" d="M180.689 748.037C167.523 748.913 40.5628 748.481 35.6439 746.52C35.9261 746.387 144.88 741.771 152.741 741.58C162.543 741.34 172.641 741.121 182.42 741.786L180.651 742.344C180.115 743.715 180.426 744.895 180.602 746.31C180.734 747.371 180.699 746.9 180.689 748.037Z"/>
	<path fill="#18D452" transform="scale(1.36109 1.36109)" d="M783.634 412.839C786.909 415.981 788.546 422.341 789.988 426.497C795.323 426.776 800.647 427.051 805.968 427.537C801.652 430.824 797.297 434.002 792.832 437.084C794.318 442.525 796.093 447.978 797.941 453.307C794.861 450.584 787.375 443.895 783.238 443.887C778.483 446.827 774.101 450.282 769.874 453.928C771.483 448.33 773.18 442.78 775.063 437.267C769.967 434.365 765.269 431.159 760.692 427.491C766.684 427.655 772.716 427.078 778.694 426.694C780.15 422.048 781.995 417.429 783.634 412.839Z"/>
	<path fill="#18D452" transform="scale(1.36109 1.36109)" d="M831.842 748.215C831.656 745.286 831.844 742.388 832.835 739.592C837.57 740.957 852.125 740.738 857.762 740.991L922.223 743.915C932.226 744.384 942.781 744.068 952.669 745.448C957.592 745.442 962.485 745.658 967.4 745.906L968.382 748.056C965.4 748.006 962.463 747.871 959.492 747.608C943.722 748.733 927.282 747.831 911.435 747.839L831.842 748.215Z"/>
	<path fill="#1A7C3C" transform="scale(1.36109 1.36109)" d="M100.923 597.739C103.561 601.177 105.694 605.376 107.956 609.086C112.522 616.579 117.122 624.04 121.834 631.441C118.081 631.662 114.689 632.066 111.035 632.98C111.756 634.935 112.655 636.654 113.701 638.453C112.921 640.511 112.203 642.628 111.23 644.603C110.33 643.084 109.445 640.939 107.806 640.246C106.27 640.642 105.559 641.867 104.625 643.052C104.532 643.302 104.434 643.55 104.348 643.802C103.927 645.033 104.102 644.444 103.925 645.643C103.784 646.599 103.522 647.051 103.008 647.847L102.078 647.746C101.393 647.674 100.648 647.559 99.9673 647.528C98.7759 647.473 98.0215 647.862 96.9513 648.318C95.2855 649.208 93.2311 650.049 91.8891 651.387L90.5917 652.594C87.3804 653.257 84.0868 653.578 80.8335 653.986C84.4965 646.857 90.225 640.023 92.974 632.559C90.5134 630.579 82.9416 631.572 79.8446 631.734C86.3692 620.253 93.6664 608.776 100.923 597.739Z"/>
	<path fill="#1B1B1B" transform="scale(1.36109 1.36109)" d="M105.158 633.804C105.33 633.992 105.527 634.16 105.673 634.369C106.333 635.321 106.671 636.588 106.369 637.726C105.963 639.251 104.896 640.026 103.67 640.881C103.284 640.703 102.932 640.394 102.588 640.144C102.841 637.844 104.113 635.835 105.158 633.804Z"/>
	<path fill="#1B1B1B" transform="scale(1.36109 1.36109)" d="M398.154 675.172C407.782 696.469 420.063 716.567 429.419 737.954L419.002 738.192C415.382 737.647 411.997 737.888 408.371 737.674C407.395 736.492 400.289 719.807 398.66 716.537C396.012 719.607 394.144 722.925 392.369 726.545C388.13 720.904 385.153 713.442 381.762 707.195C387.054 696.429 392.066 685.524 398.154 675.172Z"/>
	<path fill="#1B1B1B" transform="scale(1.36109 1.36109)" d="M626.258 675.352C628.837 680.66 632.235 685.78 635.256 690.86C640.216 699.205 645.019 707.767 650.782 715.589C649.502 717.785 648.212 719.968 646.871 722.127C644.021 718.046 641.167 713.971 638.25 709.938C635.075 715.727 632.034 721.738 628.368 727.233C625.78 724.281 623.712 721.196 621.92 717.698C617.808 724.31 614.614 731.016 611.589 738.16C604.792 738.198 597.752 738.815 590.992 738.406C594.876 730.58 599.612 723.023 603.901 715.403L626.258 675.352Z"/>
	<path fill="#1B1B1B" transform="scale(1.36109 1.36109)" d="M512.166 650.404C516.376 656.941 520.001 664.021 524.249 670.612C534.687 686.809 547.108 702.387 560.186 716.507L560.304 717.12L560.802 717.404C539.603 703.39 525.132 675.169 512.773 653.457C512.979 659.324 513.876 665.135 514.677 670.943C519.37 693.651 526.543 714.584 537.027 735.307C520.297 735.332 503.585 734.926 486.855 735.112C488.967 729.411 492.183 723.934 494.567 718.295C499.531 706.551 503.403 694.388 506.637 682.062C509.33 671.798 509.419 661.231 511.992 651.063L512.166 650.404Z"/>
	<path fill="#1B1B1B" transform="scale(1.36109 1.36109)" d="M104.625 643.052C105.559 641.867 106.27 640.642 107.806 640.246C109.445 640.939 110.33 643.084 111.23 644.603C113.646 648.757 117.611 647.714 117.612 653.952L114.019 653.888C113.517 655.071 114.457 656.648 114.875 657.86C119.254 664.398 124.215 671.068 127.304 678.338L117.565 678.592C122.187 685.87 127.166 694.328 130.459 702.291L106.065 702.396L106.196 724.353L95.6102 724.227C95.599 717.067 95.6639 709.897 95.5687 702.738L69.2109 702.842C72.0515 696.627 75.3034 690.722 78.8808 684.901C79.4542 682.953 81.3407 681.506 81.3192 679.336L80.5324 678.797C78.7062 679.453 76.5675 679.615 74.65 679.926C77.6274 674.72 80.6015 669.265 84.1922 664.455C85.2153 663.471 86.0217 662.138 86.8507 660.978C86.0385 658.325 89.4656 655.146 90.5917 652.594L91.8891 651.387C93.2311 650.049 95.2855 649.208 96.9513 648.318C98.0215 647.862 98.7759 647.473 99.9673 647.528C100.648 647.559 101.393 647.674 102.078 647.746L103.008 647.847C103.522 647.051 103.784 646.599 103.925 645.643C104.102 644.444 103.927 645.033 104.348 643.802C104.434 643.55 104.532 643.302 104.625 643.052Z"/>
	<path fill="#949793" transform="scale(1.36109 1.36109)" d="M102.136 667.708C102.109 667.686 102.079 667.669 102.056 667.643C100.845 666.275 99.4319 664.716 99.4186 662.855C100.416 661.905 100.473 662.041 101.874 662.013C102.997 662.606 103.788 662.878 104.277 664.163C104.756 665.418 104.434 666.529 104.003 667.722L102.136 667.708Z"/>
	<path fill="#949793" transform="scale(1.36109 1.36109)" d="M81.6221 677.552C82.8821 676.7 83.869 675.93 85.4799 676.181C88.2427 676.61 90.9182 679.071 92.3145 681.362C92.6639 681.935 92.7009 682.461 92.7988 683.107C92.8145 683.211 92.837 683.314 92.8561 683.417C90.2286 682.033 88.9501 680.346 85.7871 679.724C83.8506 679.343 83.0473 678.938 81.6221 677.552Z"/>
	<path fill="#626261" transform="scale(1.36109 1.36109)" d="M112.641 660.329C114.054 661.945 116.162 663.818 116.051 666.125C116.01 666.991 115.991 666.723 115.231 667.379C114.382 667.524 112.709 667.573 111.992 667.931C109.408 669.22 108.755 673.237 105.315 672.471C103.758 671.113 103.045 669.524 102.136 667.708L104.003 667.722L104.108 667.958L104.746 668.14C106.671 666.867 108.023 665.173 109.518 663.443C110.464 662.31 111.568 661.341 112.641 660.329Z"/>
	<path fill="#626261" transform="scale(1.36109 1.36109)" d="M80.5324 678.797L81.6221 677.552C83.0473 678.938 83.8506 679.343 85.7871 679.724C88.9501 680.346 90.2286 682.033 92.8561 683.417C89.467 686.496 86.4328 685.878 85.2244 686.925C85.7051 688.072 86.2654 688.653 85.8357 689.868C84.6355 689.936 83.8956 689.913 82.942 689.071C81.4881 687.787 80.3886 686.181 78.8808 684.901C79.4542 682.953 81.3407 681.506 81.3192 679.336L80.5324 678.797Z"/>
	<path fill="#949793" transform="scale(1.36109 1.36109)" d="M104.625 643.052C105.559 641.867 106.27 640.642 107.806 640.246C109.445 640.939 110.33 643.084 111.23 644.603C113.646 648.757 117.611 647.714 117.612 653.952L114.019 653.888C113.517 655.071 114.457 656.648 114.875 657.86C113.738 658.59 113.308 659.16 112.641 660.329C111.568 661.341 110.464 662.31 109.518 663.443C108.071 662.264 107.465 661.58 107.046 659.725C107.252 658.112 108.028 657.235 108.986 655.993L109.398 655.468L109.163 655.07C108.001 655.205 106.913 655.265 105.743 655.237L105.324 654.699C105.482 653.954 105.635 653.209 105.824 652.47L105.93 652.07L104.459 651.972L104.272 651.509C105.432 650.86 110.524 652.394 112.164 652.502C113.766 652.608 114.733 652.504 115.949 651.446C116.119 650.168 116.355 650.232 115.587 649.096C114.018 648.481 111.706 649.254 109.996 649.368C108.489 647.969 108.773 646.324 107.842 644.627C107.098 643.27 105.97 643.337 104.625 643.052Z"/>
	<path fill="#949793" transform="scale(1.36109 1.36109)" d="M96.9513 648.318C99.8114 652.922 102.1 656.755 103.441 662.031C101.407 660.128 99.3887 658.261 97.5841 656.134C96.0108 659.337 94.681 661.977 95.836 665.615C96.9777 669.212 100.049 672.024 101.837 675.341C100.508 676.713 99.5446 677.869 97.6761 678.424C95.354 678.313 93.8731 677.294 92.3657 675.546C89.3665 672.066 87.3951 667.824 84.1922 664.455C85.2153 663.471 86.0217 662.138 86.8507 660.978C86.0385 658.325 89.4656 655.146 90.5917 652.594L91.8891 651.387C93.2311 650.049 95.2855 649.208 96.9513 648.318Z"/>
	<path fill="#1B1B1B" transform="scale(1.36109 1.36109)" d="M90.5917 652.594L91.8891 651.387L96.7622 654.452C95.1899 655.782 91.8972 657.764 91.292 659.641C91.9326 661.175 92.9517 662.917 92.5277 664.587L91.7329 665.365C89.8475 664.578 88.2385 662.461 86.8507 660.978C86.0385 658.325 89.4656 655.146 90.5917 652.594Z"/>
	<defs>
		<linearGradient id="gradient_0" gradientUnits="userSpaceOnUse" x1="175.30247" y1="620.06976" x2="214.30342" y2="532.68597">
			<stop offset="0" stop-color="#164426"/>
			<stop offset="1" stop-color="#246B33"/>
		</linearGradient>
	</defs>
	<path fill="url(#gradient_0)" transform="scale(1.36109 1.36109)" d="M153.822 575.96C157.519 567.612 162.828 559.394 167.429 551.485C173.924 540.321 180.3 529.03 187.086 518.043C192.811 526.927 197.654 536.575 203.038 545.687C209.04 555.847 215.838 565.861 221.077 576.425C215.925 576.13 210.758 576.295 205.602 576.079C210.989 587.099 218.366 597.119 223.542 608.231C218.926 608.46 214.296 608.448 209.676 608.497C209.079 608.301 209.318 608.428 208.719 607.964C206.968 606.609 204.423 604.628 204.116 602.31C200.627 598.976 197.871 595.166 194.649 591.604C193.231 592.972 191.816 594.337 190.438 595.745C193.222 601.228 199.362 605.565 200.872 611.5C200.343 611.989 199.829 612.484 199.324 612.998L199.681 613.346L200.429 613.098L200.494 613.721C199.607 614.724 199.061 615.49 197.675 615.761C195.7 615.329 192.402 611.854 191.328 610.077C190.792 609.19 190.437 608.284 190.01 607.348C189.52 606.276 189.006 606.108 188.157 605.368C188.063 605.286 187.998 605.178 187.918 605.083L186.565 605.684C185.641 603.17 184.883 601.399 182.318 600.27C179.66 599.1 176.763 599.699 174.185 600.786C172.072 601.676 170.053 603.022 168.186 604.337C167.311 606.358 166.326 609.859 164.734 611.328L163.993 611.418L162.465 609.913C159.876 608.398 151.71 610.007 148.554 610.359C152.159 604.732 155.413 598.794 158.813 593.036C162.18 587.333 165.827 581.667 168.715 575.705C163.728 575.623 158.801 575.736 153.822 575.96Z"/>
	<path fill="#1A7C3C" transform="scale(1.36109 1.36109)" d="M183.715 595.177C189.289 589.681 194.749 585.5 201.624 581.749C201.455 583.818 200.669 586.499 201.131 588.527C201.828 591.583 207.15 597.412 208.989 600.476C209.813 601.849 211.017 603.643 210.621 605.251L209.835 605.501C207.567 605.077 205.976 603.601 204.116 602.31C200.627 598.976 197.871 595.166 194.649 591.604C193.231 592.972 191.816 594.337 190.438 595.745C193.222 601.228 199.362 605.565 200.872 611.5C200.343 611.989 199.829 612.484 199.324 612.998L199.681 613.346L200.429 613.098L200.494 613.721C199.607 614.724 199.061 615.49 197.675 615.761C195.7 615.329 192.402 611.854 191.328 610.077C190.792 609.19 190.437 608.284 190.01 607.348C189.52 606.276 189.006 606.108 188.157 605.368C188.063 605.286 187.998 605.178 187.918 605.083L188.551 604.47C187.92 601.514 185.183 597.942 183.715 595.177Z"/>
	<path fill="#1A7C3C" transform="scale(1.36109 1.36109)" d="M919.639 597.801C924.086 602.362 937.02 623.34 940.256 629.572C936.499 629.608 932.817 630.01 929.086 630.422C933.494 638.381 938.811 646.09 943.501 653.928L932.994 654.028C935.993 658.373 946.998 673.18 947.02 677.836C947.021 678.029 946.973 678.22 946.95 678.413L947.815 679.136L947.675 679.649C944.85 679.405 942.138 679.366 939.305 679.462C943.584 687.462 948.323 695.145 953.013 702.906C944.811 703.095 936.541 702.722 928.332 702.662C928.38 709.742 928.464 716.822 928.344 723.901C927.429 724.718 926.325 724.458 925.125 724.497L916.856 724.493C917.005 717.159 917.072 709.836 917.038 702.501L888.453 702.48C892.623 694.477 897.326 686.547 902.025 678.844L894.248 679.123C896.322 676.081 897.947 672.499 899.742 669.273C902.62 664.099 905.738 658.976 908.26 653.619C904.791 653.648 901.301 653.906 897.835 654.072C902.329 645.794 907.066 637.738 911.805 629.604C907.991 629.397 904.134 629.555 900.314 629.608C906.932 619.146 913.644 608.633 919.639 597.801Z"/>
	<path fill="#18D452" transform="scale(1.36109 1.36109)" d="M511.385 270.408C516.13 276.823 524.418 306.152 527.657 315.541C541.325 314.989 554.963 314.559 568.642 314.487C557.378 320.835 545.003 331.482 534.414 339.497C538.265 352.545 542.678 365.422 546.357 378.52C534.968 371.106 523.585 363.822 512.602 355.793C511.217 356.984 509.72 358.08 508.286 359.214C497.19 367.155 486.491 376.084 475.839 384.629C480.497 369.329 485.63 354.057 489.806 338.626C478.638 330.692 467.498 322.738 456.52 314.541C470.048 314.404 483.567 315.184 497.089 315.514C501.903 300.464 505.931 285.278 511.385 270.408ZM512.239 320.817C511.214 322.742 510.231 324.656 508.973 326.443C506.493 326.668 504.012 326.884 501.535 327.151C503.514 328.711 505.451 330.221 507.176 332.07C506.701 334.335 506.22 336.596 505.818 338.876L512.191 336.22C514.654 336.875 516.872 337.732 519.192 338.755C518.965 336.706 518.752 334.655 518.491 332.61C519.886 330.687 521.255 328.799 522.866 327.046C519.425 326.949 517.734 326.869 515.309 324.3C514.248 323.177 513.247 321.988 512.239 320.817Z"/>
	<path fill="#1B1B1B" transform="scale(1.36109 1.36109)" d="M361.541 695.693C399.201 644.964 434.369 592.195 470.665 540.474L497.018 503.075C501.779 496.326 506.307 489.365 511.403 482.866L624.115 640.835L649.062 675.883C654.771 684.061 660.289 692.468 666.235 700.469C663.416 703.28 660.556 706.061 657.797 708.932C650.742 698.01 642.289 687.674 634.595 677.17C621.939 659.892 609.562 642.367 597.259 624.833L542.185 546.03C532.059 531.589 522.272 516.804 511.383 502.92C497.895 519.148 486.564 537.729 474.393 554.993L402.017 657.826L381.87 686.822C377.156 693.604 372.586 700.563 367.197 706.835C365.068 703.262 363.348 699.437 361.541 695.693Z"/>
	<path fill="#1B1B1B" transform="scale(1.36109 1.36109)" d="M194.649 591.604C197.871 595.166 200.627 598.976 204.116 602.31C204.423 604.628 206.968 606.609 208.719 607.964C209.318 608.428 209.079 608.301 209.676 608.497C213.947 612.66 218.616 621.613 221.368 627.035C222.207 628.368 223.032 629.712 223.906 631.022C221.309 632.75 219.096 634.207 217.229 636.766C220.311 641.827 223.4 646.876 226.301 652.045C231.496 662.534 237.081 672.986 241.858 683.663C226.747 684.266 211.556 683.392 196.43 683.569L195.574 684.171C195.778 695.938 195.607 707.733 195.471 719.501C190.495 719.161 185.508 719.121 180.522 719.039L180.434 683.82C163.634 683.387 146.678 684.039 129.861 684.237C135.908 672.794 144.433 659.921 151.238 648.552C147.113 648.492 143.053 648.458 138.936 648.827C143.837 641.223 147.877 633.054 152.563 625.315C155.706 620.126 159.666 615.26 162.465 609.913L163.993 611.418L164.734 611.328C166.326 609.859 167.311 606.358 168.186 604.337C170.053 603.022 172.072 601.676 174.185 600.786C176.763 599.699 179.66 599.1 182.318 600.27C184.883 601.399 185.641 603.17 186.565 605.684L187.918 605.083C187.998 605.178 188.063 605.286 188.157 605.368C189.006 606.108 189.52 606.276 190.01 607.348C190.437 608.284 190.792 609.19 191.328 610.077C192.402 611.854 195.7 615.329 197.675 615.761C199.061 615.49 199.607 614.724 200.494 613.721L200.429 613.098L199.681 613.346L199.324 612.998C199.829 612.484 200.343 611.989 200.872 611.5C199.362 605.565 193.222 601.228 190.438 595.745C191.816 594.337 193.231 592.972 194.649 591.604Z"/>
	<path fill="#4F4F4F" transform="scale(1.36109 1.36109)" d="M174.179 667.157C175.388 667.631 176.442 668.34 177.298 669.326C179.031 671.322 179.293 673.777 179.144 676.302C177.248 675.584 174.518 674.851 173.496 672.908C172.497 671.007 173.472 668.962 174.179 667.157Z"/>
	<path fill="#4F4F4F" transform="scale(1.36109 1.36109)" d="M221.368 627.035C222.207 628.368 223.032 629.712 223.906 631.022C221.309 632.75 219.096 634.207 217.229 636.766C215.89 635.176 214.788 633.653 213.788 631.829C214.872 632.023 216.53 632.664 217.441 632.06L217.403 628.749C218.403 627.04 219.749 628.247 221.368 627.035Z"/>
	<path fill="#4F4F4F" transform="scale(1.36109 1.36109)" d="M203.327 615.514L204.313 614.64C206.499 615.034 207.701 617.021 208.928 618.768C211.096 621.853 214.607 627.37 213.921 631.256C213.887 631.449 213.832 631.638 213.788 631.829C209.037 628.49 204.517 623.893 201.964 618.645C201.984 617.003 202.365 616.791 203.327 615.514Z"/>
	<path fill="#4F4F4F" transform="scale(1.36109 1.36109)" d="M223.534 653.922C223.862 654.083 224.202 654.235 224.497 654.453C225.663 655.314 225.705 655.592 225.991 656.945C224.806 661.746 218.784 664.976 214.949 667.561L212.191 663.721C211.187 661.888 210.199 659.951 210.422 657.824L211.181 657.42C212.908 658.26 213.713 659.746 214.78 661.287C217.618 658.752 220.614 656.365 223.534 653.922Z"/>
	<path fill="#4F4F4F" transform="scale(1.36109 1.36109)" d="M207.264 634.843C207.587 634.868 207.919 634.837 208.233 634.917C211.363 635.717 214.884 641.991 216.703 644.611C213.437 644.544 210.294 644.38 207.063 643.895C205.873 644.73 204.744 646.023 203.682 647.036L199.557 642.231C202.008 639.612 204.578 637.219 207.264 634.843Z"/>
	<path fill="#4F4F4F" transform="scale(1.36109 1.36109)" d="M195.965 646.27C202.055 649.151 209.746 662.716 212.845 668.479C211.709 669.636 210.368 670.566 209.078 671.541L208.745 671.703C208.379 671.539 208.178 671.48 207.862 671.166C206.451 669.765 195.821 655.001 194.639 653.09C193.883 651.869 193.637 650.739 193.46 649.332C194.043 647.747 194.708 647.361 195.965 646.27Z"/>
	<path fill="#4F4F4F" transform="scale(1.36109 1.36109)" d="M178.202 663.893C180.424 661.125 182.892 657.454 186.262 656.023C187.705 655.411 188.618 655.55 189.986 656.199C193.963 658.086 203.915 669.094 204.782 673.424C205.061 674.818 204.706 675.108 203.992 676.242C202.483 676.66 201.946 676.336 200.471 675.901C198.8 677.562 197.572 681.331 196.43 683.569L195.574 684.171C193.043 684.737 189.722 684.907 187.451 683.466C186.023 682.559 184.807 680.871 184.718 679.138C184.65 677.801 185.027 677.417 185.871 676.541L187.199 676.537C188.613 677.419 190.103 678.476 191.769 678.793C193.564 679.134 194.598 678.752 196.087 677.776L196.116 676.157C194.466 674.773 192.618 674.728 190.55 674.758C189.314 674.775 187.817 675.011 186.872 674.044C183.396 670.49 188.926 666.861 188.912 663.134C188.909 662.256 188.853 662.476 188.174 661.803C185.15 662.316 183.35 665.115 181.63 667.393L178.202 663.893Z"/>
	<path fill="#1A7C3C" transform="scale(1.36109 1.36109)" d="M168.186 604.337C170.053 603.022 172.072 601.676 174.185 600.786C176.763 599.699 179.66 599.1 182.318 600.27C184.883 601.399 185.641 603.17 186.565 605.684C185.809 608.421 184.505 610.511 182.013 611.981C180.067 613.129 177.726 613.713 176.24 615.484C176.66 616.579 177.854 618.054 178.869 618.663C179.787 619.214 180.475 619.284 181.451 618.898C183.475 618.097 184.857 615.718 187.146 615.742C188.472 616.522 188.835 617.49 189.463 618.819C188.994 620.901 186.829 622.035 185.107 623.115C182.792 624.567 180.346 625.81 177.919 627.062C174.752 623.831 165.299 615.398 163.993 611.418L164.734 611.328C166.326 609.859 167.311 606.358 168.186 604.337Z"/>
	<path fill="#18D452" transform="scale(1.36109 1.36109)" d="M738.235 682.109C740.466 684.328 742.515 686.792 744.541 689.198C745.72 692.879 754.065 704.591 756.583 709.216C760.75 704.146 764.715 698.817 769.092 693.932C774.113 702.11 778.761 710.324 782.563 719.153C787.062 713.189 791.256 706.858 795.973 701.084C802.375 707.228 806.102 715.789 810.119 723.57L813.481 720.475C815.197 723.384 816.944 726.275 818.48 729.284C820.099 726.902 821.652 724.429 823.476 722.198C827.777 726.807 832.726 733.046 832.835 739.592C831.844 742.388 831.656 745.286 831.842 748.215C815.227 747.783 798.667 748.485 782.062 748.441L671.999 748.231C641.728 748.369 611.423 748.9 581.151 748.407C578.257 748.016 574.171 748.752 571.495 747.805C570.541 747.467 570.888 747.702 570.429 746.674C570.509 746.512 570.573 746.342 570.669 746.19C572.77 742.873 577.872 740.257 581.599 739.561C584.577 739.598 588.458 740.16 590.992 738.406C597.752 738.815 604.792 738.198 611.589 738.16C614.614 731.016 617.808 724.31 621.92 717.698C623.712 721.196 625.78 724.281 628.368 727.233C632.034 721.738 635.075 715.727 638.25 709.938C641.167 713.971 644.021 718.046 646.871 722.127C648.212 719.968 649.502 717.785 650.782 715.589C652.895 718.596 655.411 721.267 657.867 723.992C661.291 718.605 665.062 713.521 668.751 708.32C671.724 712.578 674.474 716.935 677.113 721.407C682.565 712.334 687.431 703.128 693.482 694.395C696.894 699.159 700.048 704.089 703.631 708.732C706.629 703.544 709.629 698.345 713.349 693.634L721.838 705.698C722.464 704.342 725.383 697.202 726.363 696.895C726.953 696.71 727.033 697.359 728.103 696.923L728.617 695.373C728.784 695.327 728.959 695.3 729.12 695.235C733.192 693.581 736.253 685.938 738.235 682.109Z"/>
	<defs>
		<linearGradient id="gradient_1" gradientUnits="userSpaceOnUse" x1="452.90543" y1="833.05994" x2="267.18298" y2="652.5968">
			<stop offset="0" stop-color="#05C143"/>
			<stop offset="1" stop-color="#0DE253"/>
		</linearGradient>
	</defs>
	<path fill="url(#gradient_1)" transform="scale(1.36109 1.36109)" d="M278.306 680.813L281.481 677.961C284.15 684.784 286.971 691.761 291.47 697.616C292.393 700.83 294.355 703.327 296.436 705.865C299.34 702.792 302.179 699.447 305.592 696.934C310.361 700.507 314.48 705.521 318.591 709.843C321.935 704.918 325.493 700.022 329.512 695.623C334.474 700.673 338.374 706.951 342.417 712.755L346.622 708.955C347.622 709.806 348.516 710.788 349.436 711.725C353.568 706.472 357.493 701.015 361.541 695.693C363.348 699.437 365.068 703.262 367.197 706.835C368.766 711.562 370.374 716.255 372.133 720.916C375.287 716.298 378.461 711.71 381.762 707.195C385.153 713.442 388.13 720.904 392.369 726.545C394.144 722.925 396.012 719.607 398.66 716.537C400.289 719.807 407.395 736.492 408.371 737.674C411.997 737.888 415.382 737.647 419.002 738.192C426.942 743 504.428 738.74 521.23 739.649C521.391 739.678 521.552 739.709 521.713 739.735C527.16 740.602 537.315 738.373 541.619 740.93C542.046 741.959 542.205 742.142 541.735 743.238C540.985 744.984 538.81 746.634 537.418 747.886L466.072 747.72C457.9 747.72 443.343 746.667 435.717 748.378C407.997 748.769 380.235 748.418 352.512 748.407L247.968 748.482C225.558 748.382 203.094 747.783 180.689 748.037C180.699 746.9 180.734 747.371 180.602 746.31C180.426 744.895 180.115 743.715 180.651 742.344L182.42 741.786C187.613 738.666 188.516 729.972 193.348 727.909C195.716 726.898 197.313 727.809 199.549 728.724C201.437 725.933 203.175 723.019 204.993 720.18C205.209 720.403 205.432 720.619 205.641 720.848C208.757 724.266 211.53 722.453 214.65 726.852C219.507 719.695 223.265 711.372 227.463 703.78C232.235 707.097 236.894 710.521 241.517 714.042C246.14 708.061 249.514 700.307 254.948 695.142C258.217 697.521 261.25 700.159 264.589 702.467C268.626 695.187 273.093 687.302 278.306 680.813Z"/>
	<path fill="#1B1B1B" transform="scale(1.36109 1.36109)" d="M288.271 492.453C294.292 504.669 301.944 516.286 308.962 527.956C313.109 534.852 317.326 541.499 320.151 549.075C316.465 549.583 312.597 549.757 308.878 549.72C310.974 553.392 313.152 556.992 315.408 560.569C319.697 566.1 323.272 571.743 326.616 577.889C329.526 582.918 332.31 588.235 335.716 592.946C330.303 592.952 324.878 592.883 319.467 593.017L337.79 624.184C340.7 629.209 343.968 634.263 346.46 639.506L330.442 639.612C336.196 651.6 343.94 663.008 350.816 674.394C330.944 674.359 311.057 674.161 291.187 674.407C291.287 682.134 291.539 689.89 291.47 697.616C286.971 691.761 284.15 684.784 281.481 677.961L278.306 680.813C278.031 678.66 277.868 676.742 276.291 675.135C270.811 672.677 252.204 674.233 245.496 674.502C242.365 668.165 239.299 661.85 236.582 655.323C239.681 650.597 242.509 645.594 245.155 640.603C242.46 640.637 239.749 640.542 237.053 640.505C235.481 638.342 234.277 635.922 232.995 633.58C232.909 633.348 232.83 633.113 232.757 632.877C231.409 628.571 233.057 625.425 235.034 621.672C236.191 620.179 237.532 618.965 238.92 617.691C242.712 614.719 244.36 610.722 246.502 606.545C248.326 602.901 250.207 599.251 253.052 596.283L253.333 595.201L252.589 594.524C249.146 594.033 245.452 595.042 242.061 595.713C249.868 580.394 258.78 565.606 267.584 550.848C263.308 550.719 259.151 550.751 254.886 551.101C264.876 531.197 276.507 511.349 288.271 492.453Z"/>
	<path fill="#626261" transform="scale(1.36109 1.36109)" d="M246.502 606.545L247.185 608.213C248.214 612.701 257.323 614.707 255.131 621.465C254.136 621.904 254.088 621.886 253.118 621.45C250.6 620.318 249.087 617.008 246.505 616.395C246.117 617.514 246.255 617.928 246.448 619.067C244.418 619.21 243.727 619.107 242.023 620.323C240.801 619.756 239.883 618.627 238.92 617.691C242.712 614.719 244.36 610.722 246.502 606.545Z"/>
	<path fill="#4F4F4F" transform="scale(1.36109 1.36109)" d="M246.502 606.545C248.326 602.901 250.207 599.251 253.052 596.283C254.128 598.025 255.775 599.008 257.221 600.403C260.656 603.719 262.691 607.097 264.729 611.354C263.219 613.595 261.873 615.853 259.205 616.772C257.806 616.612 257.706 616.6 256.658 615.67C255.263 612.479 256.622 607.89 254.61 605.207C252.53 604.748 250.597 605.714 248.857 606.893C248.269 607.292 247.729 607.758 247.185 608.213L246.502 606.545Z"/>
	<path fill="#4F4F4F" transform="scale(1.36109 1.36109)" d="M235.034 621.672C236.191 620.179 237.532 618.965 238.92 617.691C239.883 618.627 240.801 619.756 242.023 620.323C243.727 619.107 244.418 619.21 246.448 619.067C248.051 621.055 249.754 622.828 249.882 625.487C249.392 627.093 248.607 627.862 247.144 628.601C242.792 630.8 236.718 630.282 232.995 633.58C232.909 633.348 232.83 633.113 232.757 632.877C231.409 628.571 233.057 625.425 235.034 621.672Z"/>
	<path fill="#1B1B1B" transform="scale(1.36109 1.36109)" d="M235.034 621.672C236.191 620.179 237.532 618.965 238.92 617.691C239.883 618.627 240.801 619.756 242.023 620.323C243.218 621.325 244.383 622.115 244.936 623.63C244.196 624.403 244.598 624.265 243.565 624.299C240.986 624.385 237.189 623.127 235.034 621.672Z"/>
	<defs>
		<linearGradient id="gradient_2" gradientUnits="userSpaceOnUse" x1="289.74792" y1="577.38989" x2="283.46054" y2="580.49487">
			<stop offset="0" stop-color="#454646"/>
			<stop offset="1" stop-color="#5E5D5D"/>
		</linearGradient>
	</defs>
	<path fill="url(#gradient_2)" transform="scale(1.36109 1.36109)" d="M282.445 567.363L284.151 567.648C289.099 571.835 292.51 580.513 295.331 586.247C294.323 587.971 293.184 589.449 291.921 590.993C291.069 590.221 290.253 589.386 289.455 588.559C285.95 584.925 278.873 576.969 279.454 571.537C279.688 569.353 280.807 568.564 282.445 567.363Z"/>
	<path fill="#4F4F4F" transform="scale(1.36109 1.36109)" d="M276.441 578.42C281.274 581.461 285.248 588.743 287.537 593.756C286.365 594.977 285.028 596.051 283.745 597.154C280.479 593.361 277.026 586.57 272.421 584.429L271.821 584.801C271.816 590.051 277.809 594.529 281.252 598.006C277.738 601.668 275.04 605.152 269.732 605.855C269.482 605.784 269.23 605.719 268.982 605.641C263.921 604.051 260.668 596.165 258.422 591.789C259.849 590.816 261.231 589.765 262.628 588.75C265.378 593.57 268.027 598.05 271.848 602.103L274.557 597.192C269.493 594.147 267.384 592.489 264.72 587.082C268.413 583.224 271.692 580.87 276.441 578.42Z"/>
	<path fill="#1A7C3C" transform="scale(1.36109 1.36109)" d="M315.408 560.569C319.697 566.1 323.272 571.743 326.616 577.889C324.65 579.146 323.239 581.049 321.731 582.805C319.863 580.203 317.79 577.819 315.577 575.503C313.675 573.512 311.135 570.696 308.277 570.617L307.783 571.58C308.061 576.352 311.644 581.105 313.883 585.236C311.509 587.689 309.071 590.005 306.526 592.279C304.203 590.503 302.255 588.442 300.243 586.332C302.227 584.88 304.277 583.51 306.299 582.11C304.217 578.09 299.561 570.265 300.309 565.709C300.543 564.282 300.772 564.161 301.893 563.428C305.672 563.371 308.528 566.129 311.442 568.238C313.047 565.737 314.416 563.382 315.408 560.569Z"/>
	<path fill="#1B1B1B" transform="scale(1.36109 1.36109)" d="M511.513 513.349C514.247 517.743 517.778 521.845 520.825 526.045C526.118 533.342 531.193 540.808 536.274 548.254C555.924 577.051 576.199 605.298 596.387 633.712C604.821 645.583 612.951 657.678 621.444 669.503C616.844 675.923 613 683.006 609.035 689.834L590.539 721.623C582.52 715.646 575.737 706.387 569.575 698.55C540.052 661 524.899 626.556 512.622 580.633L512.505 580.061L511.806 579.698C510.602 580.518 510.335 582.133 510.007 583.471C507.745 592.695 505.76 601.789 502.921 610.877C491.704 646.787 472.151 680.26 446.078 707.419C441.682 711.999 436.841 716.164 432.193 720.488C429.282 716.473 426.99 711.703 424.546 707.378C419.978 699.292 415.415 691.204 411.109 682.974C408.612 678.202 406.378 672.484 403.037 668.262C413.612 651.635 425.428 635.7 436.77 619.584L486.069 549.368C494.54 537.403 503.53 525.636 511.513 513.349ZM583.423 657.332C582.1 658.87 580.802 660.438 579.389 661.895C580.745 663.801 582.045 666.11 583.991 667.445L584.864 667.18C586.258 665.428 587.615 663.622 589.143 661.985C587.105 660.619 585.402 658.589 583.423 657.332Z"/>
	<path fill="#1B1B1B" transform="scale(1.36109 1.36109)" d="M703.353 550.974C707.249 545.146 710.196 538.229 713.33 531.964C721.151 516.329 728.366 500.425 736.39 484.893C740.439 492.345 743.662 500.48 747.376 508.131C754.23 522.25 761.424 536.234 767.984 550.49C762.675 550.53 757.379 550.481 752.1 551.116C758.869 565.542 767.188 579.355 774.713 593.405L760.275 593.452C767.988 608.758 776.592 623.724 784.794 638.777L770.056 638.996C775.66 647.242 783.271 661.335 787.29 670.404C790.104 664.27 793.578 658.358 796.561 652.285C792.859 652.324 789.166 652.232 785.465 652.132C787.568 647.312 790.572 642.745 793.165 638.172C798.776 628.28 804.556 618.334 809.171 607.927L796.799 607.647C803.561 594.966 810.928 582.483 817.171 569.545L802.246 569.474C812.849 551.637 823.107 533.543 833.515 515.589C845.285 533.035 856.03 551.344 866.716 569.469L851.717 569.584C858.556 582.532 866.563 595.102 873.742 607.909C868.916 607.858 864.102 607.908 859.278 607.997C861.684 613.235 864.862 618.308 867.705 623.34L884.035 652.155C880.294 652.412 876.531 652.428 872.782 652.504C877.1 662.18 883.429 670.901 887.777 680.587L843.729 680.512L843.836 717.929L829.175 718.081C829.017 705.576 829.231 693.042 829.268 680.535L801.076 680.571C794.629 680.623 787.994 681.069 781.586 680.406C782.494 677.758 784.01 675.417 785.441 673.029C771.975 673.943 758.217 673.21 744.701 673.452L744.541 689.198C742.515 686.792 740.466 684.328 738.235 682.109C736.253 685.938 733.192 693.581 729.12 695.235C728.959 695.3 728.784 695.327 728.617 695.373C729.647 688.425 729.455 680.615 729.272 673.571C712.088 673.368 694.89 673.53 677.705 673.546C681.44 665.404 691.729 644.054 697.218 637.908L682.888 637.976C690.058 622.779 699.896 608.568 706.197 593.045C702.484 593.057 698.761 592.923 695.048 592.856C697.888 587.173 701.083 581.674 703.927 575.99C708.067 567.714 711.871 559.242 716.212 551.071C711.925 550.78 707.645 550.899 703.353 550.974ZM734.234 609.419C732.233 610.869 730.629 612.154 730.296 614.747C730.117 616.135 730.511 617.398 731.423 618.457C732.671 619.904 734.499 620.514 736.359 620.598C736.866 620.621 737.373 620.603 737.88 620.593C739.76 619.263 741.195 618.266 741.656 615.867C741.92 614.494 741.703 613.136 740.879 611.981C739.695 610.32 737.433 609.483 735.449 609.389C734.993 609.367 734.713 609.396 734.234 609.419ZM741.483 529.683C740.278 530.88 739.842 531.151 739.417 532.838C740.169 534.143 741.011 534.611 742.453 535.034C743.044 535.207 743.648 535.348 744.247 535.489L745.027 535.086C745.331 534.046 745.206 533.152 744.724 532.168C743.972 530.631 742.931 530.306 741.483 529.683ZM833.412 622.132C832.777 623.711 832.515 624.122 832.766 625.852C833.659 627.048 834.585 627.411 835.904 627.984C836.585 626.419 836.92 625.937 836.727 624.204C835.85 623.04 834.766 622.573 833.412 622.132Z"/>
</svg>
